<svg width="20" height="19" viewBox="0 0 20 19" fill="currentColor" xmlns="http://www.w3.org/2000/svg">
<path d="M2.09413 2.34571C2.42543 0.969762 3.65654 0 5.07202 0H14.9298C16.3453 0 17.5764 0.96976 17.9077 2.34571L19.8997 10.6191C20.4374 12.8521 18.7449 15 16.4478 15H8.50116V13.5H16.4478C17.7743 13.5 18.7516 12.2596 18.4412 10.9702L16.4491 2.69679C16.2801 1.99478 15.652 1.5 14.9298 1.5H5.07202C4.34984 1.5 3.72172 1.99478 3.55269 2.69679L2.87774 5.5H1.75013C1.60619 5.5 1.46483 5.51106 1.32686 5.53236L2.09413 2.34571ZM8.48994 17.5H15.2517C15.666 17.5 16.0018 17.1642 16.0018 16.75C16.0018 16.3358 15.666 16 15.2517 16H8.50116V17.25C8.50116 17.3343 8.49736 17.4177 8.48994 17.5ZM3.75057 11.5C4.44103 11.5 5.00076 10.9404 5.00076 10.25C5.00076 9.55964 4.44103 9 3.75057 9C3.06011 9 2.50038 9.55964 2.50038 10.25C2.50038 10.9404 3.06011 11.5 3.75057 11.5ZM0 8.25C0 7.2835 0.783621 6.5 1.75027 6.5H5.75087C6.71751 6.5 7.50114 7.2835 7.50114 8.25V17.25C7.50114 18.2165 6.71751 19 5.75087 19H1.75026C0.783621 19 0 18.2165 0 17.25V8.25ZM1.75027 8C1.61217 8 1.50023 8.11193 1.50023 8.25V17.25C1.50023 17.3881 1.61217 17.5 1.75026 17.5H5.75087C5.88896 17.5 6.00091 17.3881 6.00091 17.25V8.25C6.00091 8.11193 5.88896 8 5.75087 8H1.75027Z" fill="currentColor" style="fill:currentColor;fill:currentColor;fill-opacity:1;"/>
</svg>
